<mxfile host="app.diagrams.net" modified="2021-08-24T07:01:13.595Z" agent="5.0 (Windows NT 10.0; WOW64) AppleWebKit/537.36 (KHTML, like Gecko) Chrome/87.0.4280.141 Safari/537.36" etag="plaEtxWYfFQa5IgxYGOv" version="14.9.8" type="github">
  <diagram id="C5RBs43oDa-KdzZeNtuy" name="Page-1">
    <mxGraphModel dx="1038" dy="548" grid="1" gridSize="10" guides="1" tooltips="1" connect="1" arrows="1" fold="1" page="1" pageScale="1" pageWidth="827" pageHeight="1169" background="none" math="0" shadow="0">
      <root>
        <mxCell id="WIyWlLk6GJQsqaUBKTNV-0" />
        <mxCell id="WIyWlLk6GJQsqaUBKTNV-1" parent="WIyWlLk6GJQsqaUBKTNV-0" />
        <mxCell id="dBJiUUkti5pUjCc-3D_W-28" value="" style="shape=singleArrow;direction=south;whiteSpace=wrap;html=1;fillColor=#dae8fc;strokeColor=none;" parent="WIyWlLk6GJQsqaUBKTNV-1" vertex="1">
          <mxGeometry x="398" y="40" width="40" height="50" as="geometry" />
        </mxCell>
        <mxCell id="dBJiUUkti5pUjCc-3D_W-30" value="&lt;font style=&quot;font-size: 16px&quot;&gt;流量&lt;/font&gt;" style="text;html=1;align=center;verticalAlign=middle;whiteSpace=wrap;" parent="WIyWlLk6GJQsqaUBKTNV-1" vertex="1">
          <mxGeometry x="368" y="10" width="100" height="40" as="geometry" />
        </mxCell>
        <mxCell id="lKUTsfi7DLRFIKs4Wi4O-4" value="" style="verticalLabelPosition=bottom;verticalAlign=top;html=1;shape=mxgraph.basic.polygon;polyCoords=[[0.55,0],[0.75,0],[1,0],[1,1],[0.75,1],[0,1],[0,0],[0.45,0]];polyline=1;fillColor=none;shadow=0;dashed=1;" parent="WIyWlLk6GJQsqaUBKTNV-1" vertex="1">
          <mxGeometry x="33" y="145" width="770" height="470" as="geometry" />
        </mxCell>
        <mxCell id="lKUTsfi7DLRFIKs4Wi4O-7" value="&lt;b&gt;Ingress&amp;nbsp;&lt;br&gt;Controller&lt;br&gt;&lt;/b&gt;" style="html=1;dashed=0;whitespace=wrap;strokeColor=#006EAF;points=[[0.005,0.63,0],[0.1,0.2,0],[0.9,0.2,0],[0.5,0,0],[0.995,0.63,0],[0.72,0.99,0],[0.5,1,0],[0.28,0.99,0]];shape=mxgraph.kubernetes.icon;prIcon=ns;shadow=1;fillColor=#1ba1e2;fontColor=#ffffff;" parent="WIyWlLk6GJQsqaUBKTNV-1" vertex="1">
          <mxGeometry x="347.5" y="90" width="141" height="90" as="geometry" />
        </mxCell>
        <mxCell id="p3nEx2FxZ4yJWkLtqvik-16" style="edgeStyle=orthogonalEdgeStyle;orthogonalLoop=1;jettySize=auto;html=1;exitX=0.5;exitY=0;exitDx=0;exitDy=0;entryX=0.5;entryY=0;entryDx=0;entryDy=0;dashed=1;endArrow=openThin;endFill=0;" edge="1" parent="WIyWlLk6GJQsqaUBKTNV-1" source="lKUTsfi7DLRFIKs4Wi4O-10" target="lKUTsfi7DLRFIKs4Wi4O-16">
          <mxGeometry relative="1" as="geometry" />
        </mxCell>
        <mxCell id="lKUTsfi7DLRFIKs4Wi4O-10" value="" style="whiteSpace=wrap;html=1;absoluteArcSize=1;arcSize=14;strokeWidth=2;shadow=1;dashed=1;fillColor=#cce5ff;strokeColor=none;" parent="WIyWlLk6GJQsqaUBKTNV-1" vertex="1">
          <mxGeometry x="305" y="210" width="224" height="82" as="geometry" />
        </mxCell>
        <mxCell id="lKUTsfi7DLRFIKs4Wi4O-11" value="" style="aspect=fixed;perimeter=ellipsePerimeter;html=1;align=center;shadow=0;dashed=0;fontColor=#4277BB;labelBackgroundColor=#ffffff;fontSize=12;spacingTop=3;image;image=img/lib/ibm/infrastructure/mobile_provider_network.svg;strokeColor=#66FF66;" parent="WIyWlLk6GJQsqaUBKTNV-1" vertex="1">
          <mxGeometry x="328" y="229" width="39" height="39" as="geometry" />
        </mxCell>
        <mxCell id="lKUTsfi7DLRFIKs4Wi4O-12" value="&lt;b&gt;API Gateway集群服务&lt;/b&gt;" style="text;html=1;align=center;verticalAlign=middle;resizable=0;points=[];autosize=1;strokeColor=none;" parent="WIyWlLk6GJQsqaUBKTNV-1" vertex="1">
          <mxGeometry x="347" y="210" width="140" height="20" as="geometry" />
        </mxCell>
        <mxCell id="lKUTsfi7DLRFIKs4Wi4O-15" value="&lt;b&gt;Zuul&lt;/b&gt;" style="text;html=1;align=center;verticalAlign=middle;resizable=0;points=[];autosize=1;strokeColor=none;" parent="WIyWlLk6GJQsqaUBKTNV-1" vertex="1">
          <mxGeometry x="327.5" y="269" width="40" height="20" as="geometry" />
        </mxCell>
        <mxCell id="lKUTsfi7DLRFIKs4Wi4O-16" value="" style="aspect=fixed;perimeter=ellipsePerimeter;html=1;align=center;shadow=0;dashed=0;fontColor=#4277BB;labelBackgroundColor=#ffffff;fontSize=12;spacingTop=3;image;image=img/lib/ibm/infrastructure/mobile_provider_network.svg;strokeColor=#66FF66;" parent="WIyWlLk6GJQsqaUBKTNV-1" vertex="1">
          <mxGeometry x="398" y="229" width="40" height="40" as="geometry" />
        </mxCell>
        <mxCell id="lKUTsfi7DLRFIKs4Wi4O-17" value="&lt;b&gt;Zuul&lt;/b&gt;" style="text;html=1;align=center;verticalAlign=middle;resizable=0;points=[];autosize=1;strokeColor=none;" parent="WIyWlLk6GJQsqaUBKTNV-1" vertex="1">
          <mxGeometry x="398" y="269" width="40" height="20" as="geometry" />
        </mxCell>
        <mxCell id="lKUTsfi7DLRFIKs4Wi4O-19" value="" style="aspect=fixed;perimeter=ellipsePerimeter;html=1;align=center;shadow=0;dashed=0;fontColor=#4277BB;labelBackgroundColor=#ffffff;fontSize=12;spacingTop=3;image;image=img/lib/ibm/infrastructure/mobile_provider_network.svg;strokeColor=#66FF66;" parent="WIyWlLk6GJQsqaUBKTNV-1" vertex="1">
          <mxGeometry x="467" y="229" width="39" height="39" as="geometry" />
        </mxCell>
        <mxCell id="lKUTsfi7DLRFIKs4Wi4O-20" value="&lt;b&gt;Zuul&lt;/b&gt;" style="text;html=1;align=center;verticalAlign=middle;resizable=0;points=[];autosize=1;strokeColor=none;" parent="WIyWlLk6GJQsqaUBKTNV-1" vertex="1">
          <mxGeometry x="467" y="269" width="40" height="20" as="geometry" />
        </mxCell>
        <mxCell id="lKUTsfi7DLRFIKs4Wi4O-27" value="" style="whiteSpace=wrap;html=1;absoluteArcSize=1;arcSize=14;strokeWidth=2;shadow=1;dashed=1;fillColor=none;" parent="WIyWlLk6GJQsqaUBKTNV-1" vertex="1">
          <mxGeometry x="248" y="332" width="70" height="238" as="geometry" />
        </mxCell>
        <mxCell id="lKUTsfi7DLRFIKs4Wi4O-29" value="&lt;b&gt;关单服务&lt;/b&gt;" style="text;html=1;align=center;verticalAlign=middle;resizable=0;points=[];autosize=1;strokeColor=none;" parent="WIyWlLk6GJQsqaUBKTNV-1" vertex="1">
          <mxGeometry x="253" y="342" width="60" height="20" as="geometry" />
        </mxCell>
        <mxCell id="lKUTsfi7DLRFIKs4Wi4O-30" value="" style="html=1;dashed=0;whitespace=wrap;fillColor=#dae8fc;strokeColor=#6c8ebf;points=[[0.005,0.63,0],[0.1,0.2,0],[0.9,0.2,0],[0.5,0,0],[0.995,0.63,0],[0.72,0.99,0],[0.5,1,0],[0.28,0.99,0]];shape=mxgraph.kubernetes.icon;prIcon=pod;shadow=1;" parent="WIyWlLk6GJQsqaUBKTNV-1" vertex="1">
          <mxGeometry x="258" y="372" width="50" height="48" as="geometry" />
        </mxCell>
        <mxCell id="lKUTsfi7DLRFIKs4Wi4O-31" value="" style="html=1;dashed=0;whitespace=wrap;fillColor=#dae8fc;strokeColor=#6c8ebf;points=[[0.005,0.63,0],[0.1,0.2,0],[0.9,0.2,0],[0.5,0,0],[0.995,0.63,0],[0.72,0.99,0],[0.5,1,0],[0.28,0.99,0]];shape=mxgraph.kubernetes.icon;prIcon=pod;shadow=1;" parent="WIyWlLk6GJQsqaUBKTNV-1" vertex="1">
          <mxGeometry x="258" y="439" width="50" height="48" as="geometry" />
        </mxCell>
        <mxCell id="lKUTsfi7DLRFIKs4Wi4O-32" value="" style="html=1;dashed=0;whitespace=wrap;fillColor=#dae8fc;strokeColor=#6c8ebf;points=[[0.005,0.63,0],[0.1,0.2,0],[0.9,0.2,0],[0.5,0,0],[0.995,0.63,0],[0.72,0.99,0],[0.5,1,0],[0.28,0.99,0]];shape=mxgraph.kubernetes.icon;prIcon=pod;shadow=1;" parent="WIyWlLk6GJQsqaUBKTNV-1" vertex="1">
          <mxGeometry x="258" y="501" width="50" height="48" as="geometry" />
        </mxCell>
        <mxCell id="lKUTsfi7DLRFIKs4Wi4O-34" value="" style="whiteSpace=wrap;html=1;absoluteArcSize=1;arcSize=14;strokeWidth=2;shadow=1;dashed=1;fillColor=none;" parent="WIyWlLk6GJQsqaUBKTNV-1" vertex="1">
          <mxGeometry x="383" y="332" width="70" height="238" as="geometry" />
        </mxCell>
        <mxCell id="lKUTsfi7DLRFIKs4Wi4O-35" value="&lt;b&gt;客户端服务&lt;/b&gt;" style="text;html=1;align=center;verticalAlign=middle;resizable=0;points=[];autosize=1;strokeColor=none;" parent="WIyWlLk6GJQsqaUBKTNV-1" vertex="1">
          <mxGeometry x="378" y="342" width="80" height="20" as="geometry" />
        </mxCell>
        <mxCell id="lKUTsfi7DLRFIKs4Wi4O-36" value="" style="html=1;dashed=0;whitespace=wrap;fillColor=#fff2cc;strokeColor=#d6b656;points=[[0.005,0.63,0],[0.1,0.2,0],[0.9,0.2,0],[0.5,0,0],[0.995,0.63,0],[0.72,0.99,0],[0.5,1,0],[0.28,0.99,0]];shape=mxgraph.kubernetes.icon;prIcon=pod;shadow=1;" parent="WIyWlLk6GJQsqaUBKTNV-1" vertex="1">
          <mxGeometry x="393" y="372" width="50" height="48" as="geometry" />
        </mxCell>
        <mxCell id="lKUTsfi7DLRFIKs4Wi4O-37" value="" style="html=1;dashed=0;whitespace=wrap;fillColor=#fff2cc;strokeColor=#d6b656;points=[[0.005,0.63,0],[0.1,0.2,0],[0.9,0.2,0],[0.5,0,0],[0.995,0.63,0],[0.72,0.99,0],[0.5,1,0],[0.28,0.99,0]];shape=mxgraph.kubernetes.icon;prIcon=pod;shadow=1;" parent="WIyWlLk6GJQsqaUBKTNV-1" vertex="1">
          <mxGeometry x="393" y="437" width="50" height="48" as="geometry" />
        </mxCell>
        <mxCell id="lKUTsfi7DLRFIKs4Wi4O-38" value="" style="html=1;dashed=0;whitespace=wrap;fillColor=#fff2cc;strokeColor=#d6b656;points=[[0.005,0.63,0],[0.1,0.2,0],[0.9,0.2,0],[0.5,0,0],[0.995,0.63,0],[0.72,0.99,0],[0.5,1,0],[0.28,0.99,0]];shape=mxgraph.kubernetes.icon;prIcon=pod;shadow=1;" parent="WIyWlLk6GJQsqaUBKTNV-1" vertex="1">
          <mxGeometry x="393" y="499" width="50" height="48" as="geometry" />
        </mxCell>
        <mxCell id="lKUTsfi7DLRFIKs4Wi4O-39" value="" style="whiteSpace=wrap;html=1;absoluteArcSize=1;arcSize=14;strokeWidth=2;shadow=1;dashed=1;fillColor=none;" parent="WIyWlLk6GJQsqaUBKTNV-1" vertex="1">
          <mxGeometry x="512" y="332" width="70" height="238" as="geometry" />
        </mxCell>
        <mxCell id="lKUTsfi7DLRFIKs4Wi4O-40" value="&lt;b&gt;发票服务&lt;/b&gt;" style="text;html=1;align=center;verticalAlign=middle;resizable=0;points=[];autosize=1;strokeColor=none;" parent="WIyWlLk6GJQsqaUBKTNV-1" vertex="1">
          <mxGeometry x="517" y="342" width="60" height="20" as="geometry" />
        </mxCell>
        <mxCell id="lKUTsfi7DLRFIKs4Wi4O-41" value="" style="html=1;dashed=0;whitespace=wrap;fillColor=#f8cecc;strokeColor=#b85450;points=[[0.005,0.63,0],[0.1,0.2,0],[0.9,0.2,0],[0.5,0,0],[0.995,0.63,0],[0.72,0.99,0],[0.5,1,0],[0.28,0.99,0]];shape=mxgraph.kubernetes.icon;prIcon=pod;shadow=1;" parent="WIyWlLk6GJQsqaUBKTNV-1" vertex="1">
          <mxGeometry x="522" y="372" width="50" height="48" as="geometry" />
        </mxCell>
        <mxCell id="lKUTsfi7DLRFIKs4Wi4O-42" value="" style="html=1;dashed=0;whitespace=wrap;fillColor=#f8cecc;strokeColor=#b85450;points=[[0.005,0.63,0],[0.1,0.2,0],[0.9,0.2,0],[0.5,0,0],[0.995,0.63,0],[0.72,0.99,0],[0.5,1,0],[0.28,0.99,0]];shape=mxgraph.kubernetes.icon;prIcon=pod;shadow=1;" parent="WIyWlLk6GJQsqaUBKTNV-1" vertex="1">
          <mxGeometry x="522" y="437" width="50" height="48" as="geometry" />
        </mxCell>
        <mxCell id="lKUTsfi7DLRFIKs4Wi4O-43" value="" style="html=1;dashed=0;whitespace=wrap;fillColor=#f8cecc;strokeColor=#b85450;points=[[0.005,0.63,0],[0.1,0.2,0],[0.9,0.2,0],[0.5,0,0],[0.995,0.63,0],[0.72,0.99,0],[0.5,1,0],[0.28,0.99,0]];shape=mxgraph.kubernetes.icon;prIcon=pod;shadow=1;" parent="WIyWlLk6GJQsqaUBKTNV-1" vertex="1">
          <mxGeometry x="522" y="499" width="50" height="48" as="geometry" />
        </mxCell>
        <mxCell id="p3nEx2FxZ4yJWkLtqvik-2" value="" style="endArrow=openThin;html=1;dashed=1;exitX=0.5;exitY=1;exitDx=0;exitDy=0;exitPerimeter=0;endFill=0;entryX=0.179;entryY=-0.037;entryDx=0;entryDy=0;entryPerimeter=0;" edge="1" parent="WIyWlLk6GJQsqaUBKTNV-1" source="lKUTsfi7DLRFIKs4Wi4O-7" target="lKUTsfi7DLRFIKs4Wi4O-10">
          <mxGeometry width="50" height="50" relative="1" as="geometry">
            <mxPoint x="250" y="180" as="sourcePoint" />
            <mxPoint x="350" y="220" as="targetPoint" />
          </mxGeometry>
        </mxCell>
        <mxCell id="p3nEx2FxZ4yJWkLtqvik-3" value="" style="endArrow=openThin;html=1;dashed=1;exitX=0.5;exitY=1;exitDx=0;exitDy=0;exitPerimeter=0;endFill=0;entryX=0.5;entryY=0;entryDx=0;entryDy=0;" edge="1" parent="WIyWlLk6GJQsqaUBKTNV-1" source="lKUTsfi7DLRFIKs4Wi4O-7" target="lKUTsfi7DLRFIKs4Wi4O-10">
          <mxGeometry width="50" height="50" relative="1" as="geometry">
            <mxPoint x="423.5" y="200" as="sourcePoint" />
            <mxPoint x="360" y="230" as="targetPoint" />
          </mxGeometry>
        </mxCell>
        <mxCell id="p3nEx2FxZ4yJWkLtqvik-4" value="" style="endArrow=openThin;html=1;dashed=1;exitX=0.5;exitY=1;exitDx=0;exitDy=0;exitPerimeter=0;endFill=0;" edge="1" parent="WIyWlLk6GJQsqaUBKTNV-1" source="lKUTsfi7DLRFIKs4Wi4O-7">
          <mxGeometry width="50" height="50" relative="1" as="geometry">
            <mxPoint x="423.5" y="200" as="sourcePoint" />
            <mxPoint x="483" y="210" as="targetPoint" />
          </mxGeometry>
        </mxCell>
        <mxCell id="p3nEx2FxZ4yJWkLtqvik-5" value="" style="endArrow=openThin;html=1;dashed=1;endFill=0;entryX=0.5;entryY=0;entryDx=0;entryDy=0;exitX=0.443;exitY=-0.02;exitDx=0;exitDy=0;exitPerimeter=0;" edge="1" parent="WIyWlLk6GJQsqaUBKTNV-1" source="lKUTsfi7DLRFIKs4Wi4O-15" target="lKUTsfi7DLRFIKs4Wi4O-27">
          <mxGeometry width="50" height="50" relative="1" as="geometry">
            <mxPoint x="330" y="290" as="sourcePoint" />
            <mxPoint x="360" y="230" as="targetPoint" />
          </mxGeometry>
        </mxCell>
        <mxCell id="p3nEx2FxZ4yJWkLtqvik-6" value="" style="endArrow=openThin;html=1;dashed=1;endFill=0;entryX=0.5;entryY=0;entryDx=0;entryDy=0;exitX=0.463;exitY=-0.1;exitDx=0;exitDy=0;exitPerimeter=0;" edge="1" parent="WIyWlLk6GJQsqaUBKTNV-1" source="lKUTsfi7DLRFIKs4Wi4O-15" target="lKUTsfi7DLRFIKs4Wi4O-34">
          <mxGeometry width="50" height="50" relative="1" as="geometry">
            <mxPoint x="355.22" y="278.6" as="sourcePoint" />
            <mxPoint x="293" y="342" as="targetPoint" />
          </mxGeometry>
        </mxCell>
        <mxCell id="p3nEx2FxZ4yJWkLtqvik-7" value="" style="endArrow=openThin;html=1;dashed=1;endFill=0;entryX=0.5;entryY=0;entryDx=0;entryDy=0;exitX=0.502;exitY=-0.06;exitDx=0;exitDy=0;exitPerimeter=0;" edge="1" parent="WIyWlLk6GJQsqaUBKTNV-1" source="lKUTsfi7DLRFIKs4Wi4O-15" target="lKUTsfi7DLRFIKs4Wi4O-39">
          <mxGeometry width="50" height="50" relative="1" as="geometry">
            <mxPoint x="356.02" y="277" as="sourcePoint" />
            <mxPoint x="428" y="342" as="targetPoint" />
          </mxGeometry>
        </mxCell>
        <mxCell id="p3nEx2FxZ4yJWkLtqvik-8" value="" style="endArrow=openThin;html=1;dashed=1;endFill=0;exitX=0.56;exitY=0.1;exitDx=0;exitDy=0;exitPerimeter=0;" edge="1" parent="WIyWlLk6GJQsqaUBKTNV-1" source="lKUTsfi7DLRFIKs4Wi4O-17">
          <mxGeometry width="50" height="50" relative="1" as="geometry">
            <mxPoint x="356.02" y="277" as="sourcePoint" />
            <mxPoint x="420" y="330" as="targetPoint" />
          </mxGeometry>
        </mxCell>
        <mxCell id="p3nEx2FxZ4yJWkLtqvik-9" value="" style="endArrow=openThin;html=1;dashed=1;endFill=0;entryX=0.5;entryY=0;entryDx=0;entryDy=0;" edge="1" parent="WIyWlLk6GJQsqaUBKTNV-1" target="lKUTsfi7DLRFIKs4Wi4O-27">
          <mxGeometry width="50" height="50" relative="1" as="geometry">
            <mxPoint x="420" y="270" as="sourcePoint" />
            <mxPoint x="430" y="340" as="targetPoint" />
          </mxGeometry>
        </mxCell>
        <mxCell id="p3nEx2FxZ4yJWkLtqvik-10" value="" style="endArrow=openThin;html=1;dashed=1;endFill=0;exitX=0.58;exitY=0.06;exitDx=0;exitDy=0;exitPerimeter=0;entryX=0.5;entryY=0;entryDx=0;entryDy=0;" edge="1" parent="WIyWlLk6GJQsqaUBKTNV-1" source="lKUTsfi7DLRFIKs4Wi4O-17" target="lKUTsfi7DLRFIKs4Wi4O-39">
          <mxGeometry width="50" height="50" relative="1" as="geometry">
            <mxPoint x="430.4000000000001" y="281" as="sourcePoint" />
            <mxPoint x="430" y="340" as="targetPoint" />
          </mxGeometry>
        </mxCell>
        <mxCell id="p3nEx2FxZ4yJWkLtqvik-11" value="" style="endArrow=openThin;html=1;dashed=1;endFill=0;exitX=0.455;exitY=-0.14;exitDx=0;exitDy=0;exitPerimeter=0;" edge="1" parent="WIyWlLk6GJQsqaUBKTNV-1" source="lKUTsfi7DLRFIKs4Wi4O-20">
          <mxGeometry width="50" height="50" relative="1" as="geometry">
            <mxPoint x="431.20000000000005" y="280.20000000000005" as="sourcePoint" />
            <mxPoint x="540" y="330" as="targetPoint" />
          </mxGeometry>
        </mxCell>
        <mxCell id="p3nEx2FxZ4yJWkLtqvik-12" value="" style="endArrow=openThin;html=1;dashed=1;endFill=0;exitX=0.575;exitY=0.05;exitDx=0;exitDy=0;exitPerimeter=0;" edge="1" parent="WIyWlLk6GJQsqaUBKTNV-1" source="lKUTsfi7DLRFIKs4Wi4O-20">
          <mxGeometry width="50" height="50" relative="1" as="geometry">
            <mxPoint x="495.20000000000005" y="276.20000000000005" as="sourcePoint" />
            <mxPoint x="420" y="330" as="targetPoint" />
          </mxGeometry>
        </mxCell>
        <mxCell id="p3nEx2FxZ4yJWkLtqvik-14" value="" style="endArrow=openThin;html=1;dashed=1;endFill=0;entryX=0.5;entryY=0;entryDx=0;entryDy=0;" edge="1" parent="WIyWlLk6GJQsqaUBKTNV-1" target="lKUTsfi7DLRFIKs4Wi4O-27">
          <mxGeometry width="50" height="50" relative="1" as="geometry">
            <mxPoint x="490" y="270" as="sourcePoint" />
            <mxPoint x="430" y="340" as="targetPoint" />
          </mxGeometry>
        </mxCell>
        <mxCell id="p3nEx2FxZ4yJWkLtqvik-26" value="http" style="endArrow=block;html=1;endFill=1;exitX=1;exitY=0.25;exitDx=0;exitDy=0;entryX=0;entryY=0.25;entryDx=0;entryDy=0;" edge="1" parent="WIyWlLk6GJQsqaUBKTNV-1" source="lKUTsfi7DLRFIKs4Wi4O-27" target="lKUTsfi7DLRFIKs4Wi4O-34">
          <mxGeometry width="50" height="50" relative="1" as="geometry">
            <mxPoint x="182.22000000000003" y="342" as="sourcePoint" />
            <mxPoint x="380" y="387" as="targetPoint" />
          </mxGeometry>
        </mxCell>
        <mxCell id="p3nEx2FxZ4yJWkLtqvik-27" value="http" style="endArrow=block;html=1;endFill=1;exitX=1;exitY=0.25;exitDx=0;exitDy=0;fillColor=#f5f5f5;gradientColor=#b3b3b3;jumpStyle=none;sketch=0;shadow=0;" edge="1" parent="WIyWlLk6GJQsqaUBKTNV-1">
          <mxGeometry width="50" height="50" relative="1" as="geometry">
            <mxPoint x="454" y="390" as="sourcePoint" />
            <mxPoint x="516" y="390" as="targetPoint" />
          </mxGeometry>
        </mxCell>
        <mxCell id="p3nEx2FxZ4yJWkLtqvik-28" value="http" style="endArrow=block;html=1;endFill=1;exitX=-0.037;exitY=0.683;exitDx=0;exitDy=0;exitPerimeter=0;entryX=1.023;entryY=0.679;entryDx=0;entryDy=0;entryPerimeter=0;" edge="1" parent="WIyWlLk6GJQsqaUBKTNV-1" source="lKUTsfi7DLRFIKs4Wi4O-34" target="lKUTsfi7DLRFIKs4Wi4O-27">
          <mxGeometry width="50" height="50" relative="1" as="geometry">
            <mxPoint x="328" y="397" as="sourcePoint" />
            <mxPoint x="390" y="397" as="targetPoint" />
          </mxGeometry>
        </mxCell>
        <mxCell id="p3nEx2FxZ4yJWkLtqvik-29" value="http" style="endArrow=block;html=1;endFill=1;exitX=-0.029;exitY=0.673;exitDx=0;exitDy=0;exitPerimeter=0;entryX=1.003;entryY=0.672;entryDx=0;entryDy=0;entryPerimeter=0;" edge="1" parent="WIyWlLk6GJQsqaUBKTNV-1">
          <mxGeometry width="50" height="50" relative="1" as="geometry">
            <mxPoint x="509.97" y="494.174" as="sourcePoint" />
            <mxPoint x="453.21000000000004" y="493.9359999999999" as="targetPoint" />
          </mxGeometry>
        </mxCell>
        <mxCell id="p3nEx2FxZ4yJWkLtqvik-32" value="" style="whiteSpace=wrap;html=1;absoluteArcSize=1;arcSize=14;strokeWidth=2;shadow=1;dashed=1;fillColor=#d5e8d4;strokeColor=none;" vertex="1" parent="WIyWlLk6GJQsqaUBKTNV-1">
          <mxGeometry x="101" y="250" width="80" height="250" as="geometry" />
        </mxCell>
        <mxCell id="p3nEx2FxZ4yJWkLtqvik-33" value="&lt;b&gt;服务注册中心&lt;/b&gt;" style="text;html=1;align=center;verticalAlign=middle;resizable=0;points=[];autosize=1;strokeColor=none;" vertex="1" parent="WIyWlLk6GJQsqaUBKTNV-1">
          <mxGeometry x="95" y="260" width="90" height="20" as="geometry" />
        </mxCell>
        <mxCell id="p3nEx2FxZ4yJWkLtqvik-34" value="" style="aspect=fixed;perimeter=ellipsePerimeter;html=1;align=center;shadow=0;dashed=0;fontColor=#4277BB;labelBackgroundColor=#ffffff;fontSize=12;spacingTop=3;image;image=img/lib/ibm/infrastructure/mobile_backend.svg;strokeColor=#000000;fillColor=none;" vertex="1" parent="WIyWlLk6GJQsqaUBKTNV-1">
          <mxGeometry x="116" y="292" width="48" height="48" as="geometry" />
        </mxCell>
        <mxCell id="p3nEx2FxZ4yJWkLtqvik-35" value="" style="aspect=fixed;perimeter=ellipsePerimeter;html=1;align=center;shadow=0;dashed=0;fontColor=#4277BB;labelBackgroundColor=#ffffff;fontSize=12;spacingTop=3;image;image=img/lib/ibm/infrastructure/mobile_backend.svg;strokeColor=#000000;fillColor=none;" vertex="1" parent="WIyWlLk6GJQsqaUBKTNV-1">
          <mxGeometry x="116" y="362" width="48" height="48" as="geometry" />
        </mxCell>
        <mxCell id="p3nEx2FxZ4yJWkLtqvik-36" value="" style="aspect=fixed;perimeter=ellipsePerimeter;html=1;align=center;shadow=0;dashed=0;fontColor=#4277BB;labelBackgroundColor=#ffffff;fontSize=12;spacingTop=3;image;image=img/lib/ibm/infrastructure/mobile_backend.svg;strokeColor=#000000;fillColor=none;" vertex="1" parent="WIyWlLk6GJQsqaUBKTNV-1">
          <mxGeometry x="117" y="432" width="48" height="48" as="geometry" />
        </mxCell>
        <mxCell id="p3nEx2FxZ4yJWkLtqvik-37" value="&lt;b&gt;pod&lt;/b&gt;" style="text;html=1;align=center;verticalAlign=middle;resizable=0;points=[];autosize=1;strokeColor=none;" vertex="1" parent="WIyWlLk6GJQsqaUBKTNV-1">
          <mxGeometry x="118" y="340" width="40" height="20" as="geometry" />
        </mxCell>
        <mxCell id="p3nEx2FxZ4yJWkLtqvik-38" value="&lt;b&gt;pod&lt;/b&gt;" style="text;html=1;align=center;verticalAlign=middle;resizable=0;points=[];autosize=1;strokeColor=none;" vertex="1" parent="WIyWlLk6GJQsqaUBKTNV-1">
          <mxGeometry x="117" y="410" width="40" height="20" as="geometry" />
        </mxCell>
        <mxCell id="p3nEx2FxZ4yJWkLtqvik-39" value="&lt;b&gt;pod&lt;/b&gt;" style="text;html=1;align=center;verticalAlign=middle;resizable=0;points=[];autosize=1;strokeColor=none;" vertex="1" parent="WIyWlLk6GJQsqaUBKTNV-1">
          <mxGeometry x="116" y="480" width="40" height="20" as="geometry" />
        </mxCell>
        <mxCell id="p3nEx2FxZ4yJWkLtqvik-40" value="&lt;b&gt;pod&lt;/b&gt;" style="text;html=1;align=center;verticalAlign=middle;resizable=0;points=[];autosize=1;strokeColor=none;" vertex="1" parent="WIyWlLk6GJQsqaUBKTNV-1">
          <mxGeometry x="262" y="420" width="40" height="20" as="geometry" />
        </mxCell>
        <mxCell id="p3nEx2FxZ4yJWkLtqvik-41" value="&lt;b&gt;pod&lt;/b&gt;" style="text;html=1;align=center;verticalAlign=middle;resizable=0;points=[];autosize=1;strokeColor=none;" vertex="1" parent="WIyWlLk6GJQsqaUBKTNV-1">
          <mxGeometry x="264" y="484" width="40" height="20" as="geometry" />
        </mxCell>
        <mxCell id="p3nEx2FxZ4yJWkLtqvik-42" value="&lt;b&gt;pod&lt;/b&gt;" style="text;html=1;align=center;verticalAlign=middle;resizable=0;points=[];autosize=1;strokeColor=none;" vertex="1" parent="WIyWlLk6GJQsqaUBKTNV-1">
          <mxGeometry x="263" y="549" width="40" height="20" as="geometry" />
        </mxCell>
        <mxCell id="p3nEx2FxZ4yJWkLtqvik-43" value="&lt;b&gt;pod&lt;/b&gt;" style="text;html=1;align=center;verticalAlign=middle;resizable=0;points=[];autosize=1;strokeColor=none;" vertex="1" parent="WIyWlLk6GJQsqaUBKTNV-1">
          <mxGeometry x="398" y="420" width="40" height="20" as="geometry" />
        </mxCell>
        <mxCell id="p3nEx2FxZ4yJWkLtqvik-44" value="&lt;b&gt;pod&lt;/b&gt;" style="text;html=1;align=center;verticalAlign=middle;resizable=0;points=[];autosize=1;strokeColor=none;" vertex="1" parent="WIyWlLk6GJQsqaUBKTNV-1">
          <mxGeometry x="398" y="484" width="40" height="20" as="geometry" />
        </mxCell>
        <mxCell id="p3nEx2FxZ4yJWkLtqvik-45" value="&lt;b&gt;pod&lt;/b&gt;" style="text;html=1;align=center;verticalAlign=middle;resizable=0;points=[];autosize=1;strokeColor=none;" vertex="1" parent="WIyWlLk6GJQsqaUBKTNV-1">
          <mxGeometry x="397" y="547" width="40" height="20" as="geometry" />
        </mxCell>
        <mxCell id="p3nEx2FxZ4yJWkLtqvik-46" value="&lt;b&gt;pod&lt;/b&gt;" style="text;html=1;align=center;verticalAlign=middle;resizable=0;points=[];autosize=1;strokeColor=none;" vertex="1" parent="WIyWlLk6GJQsqaUBKTNV-1">
          <mxGeometry x="529" y="420" width="40" height="20" as="geometry" />
        </mxCell>
        <mxCell id="p3nEx2FxZ4yJWkLtqvik-47" value="&lt;b&gt;pod&lt;/b&gt;" style="text;html=1;align=center;verticalAlign=middle;resizable=0;points=[];autosize=1;strokeColor=none;" vertex="1" parent="WIyWlLk6GJQsqaUBKTNV-1">
          <mxGeometry x="529" y="481" width="40" height="20" as="geometry" />
        </mxCell>
        <mxCell id="p3nEx2FxZ4yJWkLtqvik-48" value="&lt;b&gt;pod&lt;/b&gt;" style="text;html=1;align=center;verticalAlign=middle;resizable=0;points=[];autosize=1;strokeColor=none;" vertex="1" parent="WIyWlLk6GJQsqaUBKTNV-1">
          <mxGeometry x="529" y="547" width="40" height="20" as="geometry" />
        </mxCell>
        <mxCell id="p3nEx2FxZ4yJWkLtqvik-50" value="" style="whiteSpace=wrap;html=1;absoluteArcSize=1;arcSize=14;strokeWidth=1;shadow=0;dashed=1;fillColor=none;" vertex="1" parent="WIyWlLk6GJQsqaUBKTNV-1">
          <mxGeometry x="214" y="316.5" width="400" height="279" as="geometry" />
        </mxCell>
        <mxCell id="p3nEx2FxZ4yJWkLtqvik-52" value="" style="endArrow=openThin;html=1;dashed=1;endFill=0;exitX=0;exitY=0.5;exitDx=0;exitDy=0;entryX=1.025;entryY=0.17;entryDx=0;entryDy=0;entryPerimeter=0;" edge="1" parent="WIyWlLk6GJQsqaUBKTNV-1" source="lKUTsfi7DLRFIKs4Wi4O-10" target="p3nEx2FxZ4yJWkLtqvik-32">
          <mxGeometry width="50" height="50" relative="1" as="geometry">
            <mxPoint x="355.22" y="278.6" as="sourcePoint" />
            <mxPoint x="200" y="375" as="targetPoint" />
          </mxGeometry>
        </mxCell>
        <mxCell id="p3nEx2FxZ4yJWkLtqvik-53" value="" style="endArrow=openThin;html=1;dashed=1;endFill=0;exitX=0;exitY=0.5;exitDx=0;exitDy=0;entryX=1;entryY=0.5;entryDx=0;entryDy=0;" edge="1" parent="WIyWlLk6GJQsqaUBKTNV-1" source="p3nEx2FxZ4yJWkLtqvik-50" target="p3nEx2FxZ4yJWkLtqvik-32">
          <mxGeometry width="50" height="50" relative="1" as="geometry">
            <mxPoint x="315" y="261" as="sourcePoint" />
            <mxPoint x="210.4000000000001" y="313.75" as="targetPoint" />
          </mxGeometry>
        </mxCell>
        <mxCell id="p3nEx2FxZ4yJWkLtqvik-56" value="" style="aspect=fixed;perimeter=ellipsePerimeter;html=1;align=center;shadow=0;dashed=0;fontColor=#4277BB;labelBackgroundColor=#ffffff;fontSize=12;spacingTop=3;image;image=img/lib/ibm/data/data_services.svg;strokeColor=#000000;strokeWidth=1;fillColor=none;" vertex="1" parent="WIyWlLk6GJQsqaUBKTNV-1">
          <mxGeometry x="80" y="528" width="60" height="60" as="geometry" />
        </mxCell>
        <mxCell id="p3nEx2FxZ4yJWkLtqvik-57" value="&lt;b&gt;redis&lt;/b&gt;" style="text;html=1;align=center;verticalAlign=middle;resizable=0;points=[];autosize=1;strokeColor=none;" vertex="1" parent="WIyWlLk6GJQsqaUBKTNV-1">
          <mxGeometry x="89" y="588" width="40" height="20" as="geometry" />
        </mxCell>
        <mxCell id="p3nEx2FxZ4yJWkLtqvik-58" value="" style="aspect=fixed;perimeter=ellipsePerimeter;html=1;align=center;shadow=0;dashed=0;fontColor=#4277BB;labelBackgroundColor=#ffffff;fontSize=12;spacingTop=3;image;image=img/lib/ibm/data/data_services.svg;strokeColor=#000000;strokeWidth=1;fillColor=none;" vertex="1" parent="WIyWlLk6GJQsqaUBKTNV-1">
          <mxGeometry x="253" y="640" width="60" height="60" as="geometry" />
        </mxCell>
        <mxCell id="p3nEx2FxZ4yJWkLtqvik-59" value="" style="aspect=fixed;perimeter=ellipsePerimeter;html=1;align=center;shadow=0;dashed=0;fontColor=#4277BB;labelBackgroundColor=#ffffff;fontSize=12;spacingTop=3;image;image=img/lib/ibm/data/data_services.svg;strokeColor=#000000;strokeWidth=1;fillColor=none;" vertex="1" parent="WIyWlLk6GJQsqaUBKTNV-1">
          <mxGeometry x="388" y="640" width="60" height="60" as="geometry" />
        </mxCell>
        <mxCell id="p3nEx2FxZ4yJWkLtqvik-60" value="" style="aspect=fixed;perimeter=ellipsePerimeter;html=1;align=center;shadow=0;dashed=0;fontColor=#4277BB;labelBackgroundColor=#ffffff;fontSize=12;spacingTop=3;image;image=img/lib/ibm/data/data_services.svg;strokeColor=#000000;strokeWidth=1;fillColor=none;" vertex="1" parent="WIyWlLk6GJQsqaUBKTNV-1">
          <mxGeometry x="519" y="640" width="60" height="60" as="geometry" />
        </mxCell>
        <mxCell id="p3nEx2FxZ4yJWkLtqvik-61" value="&lt;b&gt;mysql&lt;/b&gt;" style="text;html=1;align=center;verticalAlign=middle;resizable=0;points=[];autosize=1;strokeColor=none;" vertex="1" parent="WIyWlLk6GJQsqaUBKTNV-1">
          <mxGeometry x="257" y="700" width="50" height="20" as="geometry" />
        </mxCell>
        <mxCell id="p3nEx2FxZ4yJWkLtqvik-62" value="&lt;b&gt;mysql&lt;/b&gt;" style="text;html=1;align=center;verticalAlign=middle;resizable=0;points=[];autosize=1;strokeColor=none;" vertex="1" parent="WIyWlLk6GJQsqaUBKTNV-1">
          <mxGeometry x="389" y="700" width="50" height="20" as="geometry" />
        </mxCell>
        <mxCell id="p3nEx2FxZ4yJWkLtqvik-63" value="&lt;b&gt;mysql&lt;/b&gt;" style="text;html=1;align=center;verticalAlign=middle;resizable=0;points=[];autosize=1;strokeColor=none;" vertex="1" parent="WIyWlLk6GJQsqaUBKTNV-1">
          <mxGeometry x="527" y="700" width="50" height="20" as="geometry" />
        </mxCell>
        <mxCell id="p3nEx2FxZ4yJWkLtqvik-64" value="" style="endArrow=openThin;html=1;dashed=1;endFill=0;entryX=0.5;entryY=0;entryDx=0;entryDy=0;" edge="1" parent="WIyWlLk6GJQsqaUBKTNV-1">
          <mxGeometry width="50" height="50" relative="1" as="geometry">
            <mxPoint x="280" y="570" as="sourcePoint" />
            <mxPoint x="280" y="640" as="targetPoint" />
          </mxGeometry>
        </mxCell>
        <mxCell id="p3nEx2FxZ4yJWkLtqvik-65" value="" style="endArrow=openThin;html=1;dashed=1;endFill=0;entryX=0.5;entryY=0;entryDx=0;entryDy=0;" edge="1" parent="WIyWlLk6GJQsqaUBKTNV-1">
          <mxGeometry width="50" height="50" relative="1" as="geometry">
            <mxPoint x="417" y="572" as="sourcePoint" />
            <mxPoint x="417" y="642" as="targetPoint" />
          </mxGeometry>
        </mxCell>
        <mxCell id="p3nEx2FxZ4yJWkLtqvik-66" value="" style="endArrow=openThin;html=1;dashed=1;endFill=0;entryX=0.5;entryY=0;entryDx=0;entryDy=0;" edge="1" parent="WIyWlLk6GJQsqaUBKTNV-1">
          <mxGeometry width="50" height="50" relative="1" as="geometry">
            <mxPoint x="546" y="571" as="sourcePoint" />
            <mxPoint x="546" y="641" as="targetPoint" />
          </mxGeometry>
        </mxCell>
        <mxCell id="p3nEx2FxZ4yJWkLtqvik-67" value="" style="whiteSpace=wrap;html=1;absoluteArcSize=1;arcSize=14;strokeWidth=1;shadow=0;dashed=1;fillColor=none;" vertex="1" parent="WIyWlLk6GJQsqaUBKTNV-1">
          <mxGeometry x="220" y="620" width="400" height="110" as="geometry" />
        </mxCell>
        <mxCell id="p3nEx2FxZ4yJWkLtqvik-69" value="" style="endArrow=openThin;html=1;dashed=1;endFill=0;exitX=0;exitY=0.75;exitDx=0;exitDy=0;entryX=1;entryY=0.5;entryDx=0;entryDy=0;" edge="1" parent="WIyWlLk6GJQsqaUBKTNV-1" source="p3nEx2FxZ4yJWkLtqvik-50" target="p3nEx2FxZ4yJWkLtqvik-56">
          <mxGeometry width="50" height="50" relative="1" as="geometry">
            <mxPoint x="230" y="460.5" as="sourcePoint" />
            <mxPoint x="130" y="560" as="targetPoint" />
          </mxGeometry>
        </mxCell>
        <mxCell id="p3nEx2FxZ4yJWkLtqvik-71" value="&lt;b&gt;数&lt;br&gt;据&lt;br&gt;库&lt;/b&gt;" style="text;html=1;align=center;verticalAlign=middle;resizable=0;points=[];autosize=1;strokeColor=none;" vertex="1" parent="WIyWlLk6GJQsqaUBKTNV-1">
          <mxGeometry x="218" y="650" width="30" height="50" as="geometry" />
        </mxCell>
        <mxCell id="p3nEx2FxZ4yJWkLtqvik-76" value="" style="aspect=fixed;perimeter=ellipsePerimeter;html=1;align=center;shadow=0;dashed=0;fontColor=#4277BB;labelBackgroundColor=#ffffff;fontSize=12;spacingTop=3;image;image=img/lib/ibm/vpc/BareMetalServer.svg;strokeColor=#000000;strokeWidth=1;fillColor=#ffffff;" vertex="1" parent="WIyWlLk6GJQsqaUBKTNV-1">
          <mxGeometry x="737" y="345" width="64" height="64" as="geometry" />
        </mxCell>
        <mxCell id="p3nEx2FxZ4yJWkLtqvik-77" value="&lt;b&gt;rabbitMQ&lt;/b&gt;" style="text;html=1;align=center;verticalAlign=middle;resizable=0;points=[];autosize=1;strokeColor=none;" vertex="1" parent="WIyWlLk6GJQsqaUBKTNV-1">
          <mxGeometry x="731" y="325" width="70" height="20" as="geometry" />
        </mxCell>
        <mxCell id="p3nEx2FxZ4yJWkLtqvik-85" value="" style="endArrow=openThin;html=1;dashed=1;endFill=0;exitX=0;exitY=0.5;exitDx=0;exitDy=0;entryX=1.008;entryY=0.213;entryDx=0;entryDy=0;entryPerimeter=0;" edge="1" parent="WIyWlLk6GJQsqaUBKTNV-1" source="p3nEx2FxZ4yJWkLtqvik-76" target="p3nEx2FxZ4yJWkLtqvik-50">
          <mxGeometry width="50" height="50" relative="1" as="geometry">
            <mxPoint x="526.2" y="276.20000000000005" as="sourcePoint" />
            <mxPoint x="581" y="340" as="targetPoint" />
          </mxGeometry>
        </mxCell>
        <mxCell id="p3nEx2FxZ4yJWkLtqvik-89" value="" style="aspect=fixed;perimeter=ellipsePerimeter;html=1;align=center;shadow=0;dashed=0;fontColor=#4277BB;labelBackgroundColor=#ffffff;fontSize=12;spacingTop=3;image;image=img/lib/ibm/data/file_repository.svg;strokeColor=#000000;strokeWidth=1;fillColor=#ffffff;" vertex="1" parent="WIyWlLk6GJQsqaUBKTNV-1">
          <mxGeometry x="740" y="492" width="60" height="60" as="geometry" />
        </mxCell>
        <mxCell id="p3nEx2FxZ4yJWkLtqvik-90" value="&lt;b&gt;mongoDB&lt;/b&gt;" style="text;html=1;align=center;verticalAlign=middle;resizable=0;points=[];autosize=1;strokeColor=none;" vertex="1" parent="WIyWlLk6GJQsqaUBKTNV-1">
          <mxGeometry x="735" y="553" width="70" height="20" as="geometry" />
        </mxCell>
        <mxCell id="p3nEx2FxZ4yJWkLtqvik-91" value="events" style="text;html=1;align=center;verticalAlign=middle;resizable=0;points=[];autosize=1;strokeColor=none;" vertex="1" parent="WIyWlLk6GJQsqaUBKTNV-1">
          <mxGeometry x="720" y="437" width="50" height="20" as="geometry" />
        </mxCell>
        <mxCell id="p3nEx2FxZ4yJWkLtqvik-92" value="event Handler" style="text;html=1;align=center;verticalAlign=middle;resizable=0;points=[];autosize=1;strokeColor=none;" vertex="1" parent="WIyWlLk6GJQsqaUBKTNV-1">
          <mxGeometry x="632" y="352" width="90" height="20" as="geometry" />
        </mxCell>
        <mxCell id="p3nEx2FxZ4yJWkLtqvik-105" style="edgeStyle=orthogonalEdgeStyle;rounded=1;sketch=0;jumpStyle=none;orthogonalLoop=1;jettySize=auto;html=1;exitX=1;exitY=0.5;exitDx=0;exitDy=0;entryX=0.5;entryY=1;entryDx=0;entryDy=0;shadow=0;dashed=1;endArrow=block;endFill=1;strokeColor=#000000;" edge="1" parent="WIyWlLk6GJQsqaUBKTNV-1" source="p3nEx2FxZ4yJWkLtqvik-95" target="p3nEx2FxZ4yJWkLtqvik-76">
          <mxGeometry relative="1" as="geometry" />
        </mxCell>
        <mxCell id="p3nEx2FxZ4yJWkLtqvik-107" style="edgeStyle=orthogonalEdgeStyle;rounded=1;sketch=0;jumpStyle=none;orthogonalLoop=1;jettySize=auto;html=1;exitX=1;exitY=0.5;exitDx=0;exitDy=0;entryX=0.5;entryY=0;entryDx=0;entryDy=0;shadow=0;dashed=1;endArrow=block;endFill=1;strokeColor=#000000;" edge="1" parent="WIyWlLk6GJQsqaUBKTNV-1" source="p3nEx2FxZ4yJWkLtqvik-95" target="p3nEx2FxZ4yJWkLtqvik-89">
          <mxGeometry relative="1" as="geometry" />
        </mxCell>
        <mxCell id="p3nEx2FxZ4yJWkLtqvik-95" value="" style="aspect=fixed;perimeter=ellipsePerimeter;html=1;align=center;shadow=0;dashed=0;fontColor=#4277BB;labelBackgroundColor=#ffffff;fontSize=12;spacingTop=3;image;image=img/lib/ibm/infrastructure/diagnostics.svg;strokeColor=#000000;strokeWidth=1;fillColor=#ffffff;" vertex="1" parent="WIyWlLk6GJQsqaUBKTNV-1">
          <mxGeometry x="667" y="426" width="60" height="60" as="geometry" />
        </mxCell>
        <mxCell id="p3nEx2FxZ4yJWkLtqvik-96" value="&lt;b&gt;Event Bus&lt;/b&gt;" style="text;html=1;align=center;verticalAlign=middle;resizable=0;points=[];autosize=1;strokeColor=none;" vertex="1" parent="WIyWlLk6GJQsqaUBKTNV-1">
          <mxGeometry x="661" y="487" width="70" height="20" as="geometry" />
        </mxCell>
        <mxCell id="p3nEx2FxZ4yJWkLtqvik-100" value="" style="endArrow=openThin;html=1;dashed=1;endFill=0;exitX=1;exitY=0.5;exitDx=0;exitDy=0;entryX=0;entryY=0.5;entryDx=0;entryDy=0;" edge="1" parent="WIyWlLk6GJQsqaUBKTNV-1" source="p3nEx2FxZ4yJWkLtqvik-50" target="p3nEx2FxZ4yJWkLtqvik-95">
          <mxGeometry width="50" height="50" relative="1" as="geometry">
            <mxPoint x="739" y="387" as="sourcePoint" />
            <mxPoint x="660" y="456" as="targetPoint" />
          </mxGeometry>
        </mxCell>
        <mxCell id="p3nEx2FxZ4yJWkLtqvik-109" value="" style="html=1;dashed=0;whitespace=wrap;fillColor=#2875E2;strokeColor=#ffffff;points=[[0.005,0.63,0],[0.1,0.2,0],[0.9,0.2,0],[0.5,0,0],[0.995,0.63,0],[0.72,0.99,0],[0.5,1,0],[0.28,0.99,0]];shape=mxgraph.kubernetes.icon;prIcon=etcd;shadow=0;" vertex="1" parent="WIyWlLk6GJQsqaUBKTNV-1">
          <mxGeometry x="611" y="160" width="50" height="48" as="geometry" />
        </mxCell>
        <mxCell id="p3nEx2FxZ4yJWkLtqvik-110" value="&lt;b&gt;&lt;font style=&quot;font-size: 16px&quot;&gt;K8S集群&lt;/font&gt;&lt;/b&gt;" style="text;html=1;align=center;verticalAlign=middle;resizable=0;points=[];autosize=1;strokeColor=none;" vertex="1" parent="WIyWlLk6GJQsqaUBKTNV-1">
          <mxGeometry x="657" y="179" width="80" height="20" as="geometry" />
        </mxCell>
        <mxCell id="p3nEx2FxZ4yJWkLtqvik-111" value="&lt;b&gt;&lt;font style=&quot;font-size: 16px&quot;&gt;emTouch SaaS&amp;nbsp; 微服务+k8s部署结构（草稿）&lt;/font&gt;&lt;/b&gt;" style="text;html=1;align=center;verticalAlign=middle;resizable=0;points=[];autosize=1;" vertex="1" parent="WIyWlLk6GJQsqaUBKTNV-1">
          <mxGeometry x="12.5" y="20" width="350" height="20" as="geometry" />
        </mxCell>
      </root>
    </mxGraphModel>
  </diagram>
</mxfile>
